<?xml version="1.0" encoding="UTF-8" standalone="no"?>
<!-- Created with Inkscape (http://www.inkscape.org/) -->

<svg
   width="25.028337mm"
   height="8.0339336mm"
   viewBox="0 0 25.028337 8.0339336"
   version="1.1"
   id="svg5"
   sodipodi:docname="drawing.svg"
   inkscape:version="1.2.2 (b0a8486, 2022-12-01)"
   xmlns:inkscape="http://www.inkscape.org/namespaces/inkscape"
   xmlns:sodipodi="http://sodipodi.sourceforge.net/DTD/sodipodi-0.dtd"
   xmlns="http://www.w3.org/2000/svg"
   xmlns:svg="http://www.w3.org/2000/svg">
  <sodipodi:namedview
     id="namedview9"
     pagecolor="#505050"
     bordercolor="#ffffff"
     borderopacity="1"
     inkscape:showpageshadow="0"
     inkscape:pageopacity="0"
     inkscape:pagecheckerboard="1"
     inkscape:deskcolor="#505050"
     inkscape:document-units="mm"
     showgrid="false"
     inkscape:zoom="13.171902"
     inkscape:cx="43.995165"
     inkscape:cy="9.7556146"
     inkscape:window-width="1971"
     inkscape:window-height="1179"
     inkscape:window-x="0"
     inkscape:window-y="25"
     inkscape:window-maximized="0"
     inkscape:current-layer="layer1" />
  <defs
     id="defs2" />
  <g
     id="layer1"
     transform="translate(-37.848254,-117.53176)">
    <g
       aria-label="Gkm"
       id="text115"
       style="font-size:11.2889px;fill:#ffffff;stroke-width:0.264583">
      <path
         d="m 47.381726,124.09813 c 0,0 0,0 0,0 0,-0.36124 0,-0.72249 0,-1.09502 0,-0.0564 -0.01129,-0.11289 -0.02258,-0.16933 0,-0.0564 -0.03387,-0.11289 -0.09031,-0.13547 -0.135467,-0.0564 -0.270934,-0.1016 -0.417689,-0.1016 -0.259645,0 -0.51929,0 -0.778934,0 -0.09031,0 -0.169334,0.0339 -0.248356,0.079 -0.09031,0.0564 -0.146756,0.14676 -0.158045,0.24836 -0.01129,0.0677 -0.01129,0.14675 -0.01129,0.21449 0,0.4064 0,0.8128 0,1.2192 0,0.0903 -0.01129,0.16933 -0.01129,0.25964 -0.01129,0.11289 -0.06773,0.19192 -0.146755,0.25965 -0.124178,0.1016 -0.270934,0.16933 -0.428979,0.21449 -0.124177,0.0339 -0.248355,0.0564 -0.383822,0.079 -0.169334,0.0226 -0.338667,0.0339 -0.508001,-0.0113 -0.112889,-0.0451 -0.225778,-0.0451 -0.349956,-0.0564 -0.225778,-0.0226 -0.451556,-0.1016 -0.620889,-0.27094 -0.04516,-0.0564 -0.1016,-0.1016 -0.158045,-0.14675 -0.06773,-0.0564 -0.124178,-0.11289 -0.180622,-0.19191 -0.07902,-0.1016 -0.146756,-0.21449 -0.2032,-0.32738 -0.06773,-0.14676 -0.112889,-0.3048 -0.146756,-0.45156 -0.04516,-0.16933 -0.09031,-0.33867 -0.146756,-0.508 -0.03387,-0.1016 -0.05644,-0.21449 -0.05644,-0.33867 -0.01129,-0.42897 -0.01129,-0.86924 0,-1.29822 0,-0.11289 0.01129,-0.23707 0.04516,-0.34996 0.03387,-0.12417 0.04516,-0.24835 0.04516,-0.38382 0.01129,-0.11289 0.01129,-0.22578 0.04516,-0.33866 0.03387,-0.11289 0.04516,-0.22578 0.04516,-0.34996 0.01129,-0.079 0.02258,-0.16933 0.04516,-0.24836 0.03387,-0.0903 0.03387,-0.16933 0.04516,-0.25964 0,-0.079 0.01129,-0.14676 0.03387,-0.21449 0.02258,-0.1016 0.03387,-0.2032 0.05645,-0.3048 0,-0.0564 0.02258,-0.1016 0.03387,-0.15805 0.06773,-0.18062 0.169334,-0.33866 0.282223,-0.49671 0.05644,-0.079 0.135467,-0.14675 0.214489,-0.2032 0.124178,-0.079 0.248356,-0.15804 0.383822,-0.21449 0.180623,-0.0903 0.372534,-0.13546 0.575734,-0.14675 0.282223,0 0.553157,0.0677 0.82409,0.0677 0.05645,0 0.112889,0.0113 0.169334,0.0113 0.03387,0.0113 0.06773,0.0113 0.09031,0.0226 0.124178,0.0339 0.259645,0.0452 0.383822,0.079 0.146756,0.0226 0.282223,0.0677 0.406401,0.13547 0.146756,0.0903 0.3048,0.16933 0.462845,0.24835 0.04515,0.0226 0.1016,0.0452 0.158044,0.0677 0.05644,0.0113 0.158045,-0.0452 0.169334,-0.1016 0.01129,-0.0226 0.01129,-0.0564 0.01129,-0.079 0.01129,-0.11289 -0.03387,-0.2032 -0.124178,-0.25964 -0.124178,-0.079 -0.259645,-0.14676 -0.395112,-0.19191 -0.09031,-0.0339 -0.191911,-0.0677 -0.282222,-0.11289 -0.158045,-0.079 -0.338667,-0.079 -0.496712,-0.13547 -0.1016,-0.0113 -0.2032,-0.0339 -0.3048,-0.0339 -0.169334,0 -0.338667,-0.0113 -0.508001,-0.0564 -0.04516,-0.0226 -0.09031,-0.0226 -0.135466,-0.0226 -0.259645,-0.0113 -0.51929,-0.0226 -0.767646,0.0677 -0.158044,0.0113 -0.316089,0.0677 -0.462845,0.11289 -0.349955,0.0903 -0.688622,0.23706 -1.004712,0.39511 -0.169333,0.0903 -0.327378,0.19191 -0.474133,0.3048 -0.248356,0.19191 -0.462845,0.4064 -0.632179,0.65475 -0.124178,0.19191 -0.248356,0.38383 -0.395111,0.57574 -0.06773,0.1016 -0.135467,0.22578 -0.169334,0.34995 -0.06773,0.2032 -0.135467,0.4064 -0.191911,0.62089 -0.07902,0.29351 -0.07902,0.29351 -0.1016,0.59831 -0.01129,0.079 -0.02258,0.16934 -0.02258,0.25965 -0.02258,0.25964 0.01129,0.51929 0.03387,0.77893 0.01129,0.0226 0.01129,0.0565 0.02258,0.079 0.07902,0.29351 0.180623,0.58702 0.304801,0.85795 0.07902,0.2032 0.191911,0.39511 0.327378,0.56445 0.124178,0.15804 0.248356,0.31609 0.383822,0.47413 0.03387,0.0452 0.07902,0.079 0.112889,0.12418 0.361245,0.33867 0.756357,0.62089 1.196624,0.86924 0.146756,0.079 0.3048,0.14676 0.474134,0.2032 0.112889,0.0564 0.248355,0.079 0.372533,0.0903 0.124178,0.0113 0.237067,0.0226 0.349956,0.0339 0.05645,0 0.112889,0.0113 0.169334,0.0113 0.248356,-0.0226 0.496711,-0.0339 0.733778,-0.0903 0.191912,-0.0339 0.372534,-0.0677 0.553156,-0.12418 0.101601,-0.0226 0.203201,-0.0226 0.293512,0.0452 0.06773,0.0451 0.158044,0.079 0.237067,0.079 0.395111,0 0.790223,0 1.174045,-0.0113 0.03387,0 0.05645,0 0.09031,-0.0113 0.05644,-0.0113 0.135466,-0.0903 0.146755,-0.14675 0.01129,-0.0564 0.02258,-0.11289 0.02258,-0.16934 0,-0.34995 0,-0.69991 0.01129,-1.03858 z"
         style="font-family:'Brixton Sans TC';-inkscape-font-specification:'Brixton Sans TC'"
         id="path1707" />
      <path
         d="m 48.318701,121.33235 c 0,0 0,0 0,0 0,0.42898 0.01129,0.86925 -0.01129,1.29823 -0.01129,0.6096 -0.01129,1.2192 -0.01129,1.81751 -0.01129,0.3048 0.03387,0.6096 0.05644,0.9144 0,0.0113 0.01129,0.0226 0.01129,0.0452 0.02258,0.0564 0.05645,0.1016 0.11289,0.12417 0.04516,0.0113 0.09031,0.0226 0.124177,0.0226 0.327379,0.0113 0.643468,0.0113 0.959557,0.0113 0.09031,0 0.169333,-0.0226 0.259645,-0.0564 0.05644,-0.0113 0.09031,-0.0564 0.112889,-0.11289 0.01129,-0.0677 0.03387,-0.14676 0.03387,-0.21449 0.02258,-0.16933 0.02258,-0.34996 0.01129,-0.51929 -0.02258,-0.39511 -0.03387,-0.77893 -0.05644,-1.17405 -0.01129,-0.22577 -0.01129,-0.46284 -0.01129,-0.68862 0,-0.0451 0.01129,-0.0903 0.02258,-0.13547 0.01129,-0.0564 0.04516,-0.1016 0.1016,-0.11289 0.112889,-0.0452 0.237067,-0.0339 0.338667,0 0.03387,0.0113 0.05644,0.0339 0.07902,0.0564 0.04516,0.0564 0.09031,0.11289 0.124178,0.16933 0.06773,0.11289 0.135467,0.22578 0.2032,0.33867 0.349956,0.55316 0.711201,1.1176 1.072446,1.68205 0.04515,0.0677 0.07902,0.14675 0.1016,0.23706 0.02258,0.0452 0.03387,0.1016 0.04516,0.15805 0.02258,0.079 0.05644,0.13546 0.09031,0.2032 0.04516,0.0677 0.1016,0.1016 0.169333,0.11289 0.05644,0.0113 0.124178,0.0113 0.180623,0.0226 0.417689,0 0.835378,0 1.253067,-0.0113 0.05645,0 0.112889,0 0.169334,-0.0113 0.1016,-0.0226 0.169333,-0.079 0.191911,-0.15805 0.04516,-0.1016 0.03387,-0.2032 -0.01129,-0.3048 -0.03387,-0.0564 -0.06773,-0.12418 -0.112889,-0.18062 -0.191911,-0.24836 -0.361244,-0.51929 -0.519289,-0.79022 -0.1016,-0.18063 -0.214489,-0.34996 -0.327378,-0.51929 -0.349956,-0.51929 -0.688623,-1.02729 -1.038579,-1.54658 -0.04516,-0.0565 -0.07902,-0.12418 -0.112889,-0.18062 -0.03387,-0.0564 -0.05644,-0.1016 -0.07902,-0.15805 -0.02258,-0.0451 -0.01129,-0.0903 0,-0.12418 0.03387,-0.0903 0.09031,-0.15804 0.146755,-0.22578 0.293512,-0.34995 0.575734,-0.7112 0.903112,-1.03857 0.04516,-0.0452 0.07902,-0.0903 0.101601,-0.14676 0.01129,-0.0339 0,-0.0564 -0.02258,-0.079 -0.02258,-0.0339 -0.05645,-0.0677 -0.1016,-0.079 -0.124178,-0.0226 -0.225778,0 -0.31609,0.1016 -0.07902,0.079 -0.158044,0.16933 -0.237066,0.24835 -0.169334,0.18062 -0.327379,0.37254 -0.474134,0.56445 -0.05645,0.079 -0.124178,0.15804 -0.191912,0.23706 -0.09031,0.0903 -0.180622,0.19191 -0.259644,0.29351 -0.05644,0.079 -0.112889,0.15805 -0.180623,0.23707 -0.06773,0.0903 -0.158044,0.16934 -0.259644,0.23707 -0.169334,0.11289 -0.361245,0.16933 -0.564445,0.21449 -0.112889,0.0226 -0.225778,0.0113 -0.338667,-0.0113 -0.06773,-0.0113 -0.135467,-0.1016 -0.135467,-0.15805 -0.01129,-0.079 -0.01129,-0.16933 -0.01129,-0.25964 0,-0.64347 0.01129,-1.29822 0.02258,-1.95298 0,-0.56445 0,-1.12889 0,-1.69334 0,-0.0564 0,-0.11288 0,-0.16933 0,-0.0339 -0.01129,-0.0564 -0.02258,-0.0903 -0.01129,-0.0339 -0.03387,-0.0677 -0.07902,-0.0903 -0.06773,-0.0226 -0.135467,-0.0452 -0.21449,-0.0452 -0.361244,-0.0113 -0.722489,-0.0113 -1.083734,-0.0226 -0.01129,0 -0.02258,0.0113 -0.03387,0.0113 -0.06773,0 -0.146755,0.079 -0.146755,0.14676 -0.01129,0.0226 -0.01129,0.0564 -0.01129,0.079 -0.01129,0.31609 -0.01129,0.64347 -0.01129,0.95956 -0.01129,0.28222 0,0.57573 0,0.86924 0,0.54187 -0.01129,1.09503 -0.01129,1.64818 z"
         style="font-family:'Brixton Sans TC';-inkscape-font-specification:'Brixton Sans TC'"
         id="path1709" />
      <path
         d="m 59.618881,123.26276 c 0,-0.55316 0,-1.10632 0,-1.65947 0,-0.079 0,-0.16934 0.01129,-0.25965 0.01129,-0.1016 0.05644,-0.19191 0.146755,-0.25964 0.158045,-0.12418 0.327379,-0.22578 0.496712,-0.33867 0.04516,-0.0226 0.07902,-0.0339 0.124178,-0.0564 0.146756,-0.0564 0.3048,-0.0564 0.462845,-0.0226 0.03387,0 0.05644,0.0113 0.07902,0.0339 0.112889,0.0677 0.2032,0.15804 0.248356,0.29351 0.02258,0.0677 0.05644,0.13546 0.05644,0.2032 0.01129,0.0903 0.03387,0.18062 0.03387,0.25964 0,0.34996 0.03387,0.69991 0.02258,1.03858 0,0.1016 0,0.2032 0.01129,0.3048 0.03387,0.25965 0.03387,0.51929 0.03387,0.77893 0,0.49672 0,0.99343 0,1.47885 0,0.0452 0,0.0903 0.01129,0.13547 0,0.0564 0.02258,0.11289 0.04516,0.15804 0.04516,0.079 0.112889,0.14676 0.2032,0.14676 0.304801,0 0.609601,0 0.914401,-0.0113 0.03387,0 0.05645,0 0.09031,-0.0113 0.05645,-0.0113 0.101601,-0.0452 0.135467,-0.0903 0.02258,-0.0564 0.04516,-0.11289 0.04516,-0.16933 0.01129,-0.1016 0.01129,-0.2032 0.02258,-0.3048 0,-0.36125 -0.01129,-0.72249 0.05644,-1.08374 0,-0.0339 0.01129,-0.079 0,-0.12418 -0.01129,-0.36124 0.03387,-0.72249 -0.02258,-1.08373 -0.01129,-0.0452 -0.01129,-0.0903 -0.01129,-0.13547 0,-0.28222 0,-0.57573 -0.01129,-0.86924 0,-0.13547 -0.01129,-0.28223 -0.02258,-0.42898 -0.02258,-0.12418 -0.04516,-0.25965 -0.09031,-0.38382 -0.06773,-0.27094 -0.225778,-0.49672 -0.462845,-0.65476 -0.124178,-0.079 -0.248356,-0.14676 -0.383823,-0.19191 -0.09031,-0.0452 -0.191911,-0.0677 -0.293511,-0.0677 -0.158045,0 -0.31609,0 -0.485423,0 -0.158045,0.0113 -0.3048,0.0452 -0.451556,0.12418 -0.124178,0.0564 -0.237067,0.11289 -0.349956,0.16934 -0.135467,0.0564 -0.259645,0.13546 -0.372534,0.22577 -0.07902,0.0677 -0.146755,0.13547 -0.225778,0.2032 -0.02258,0.0113 -0.05644,0.0226 -0.07902,0.0339 -0.03387,0.0113 -0.1016,-0.0113 -0.124178,-0.0226 -0.05644,-0.0564 -0.07902,-0.12417 -0.124178,-0.18062 -0.07902,-0.11289 -0.158044,-0.2032 -0.270933,-0.28222 -0.05645,-0.0452 -0.112889,-0.079 -0.180623,-0.12418 -0.146756,-0.0903 -0.3048,-0.14676 -0.485423,-0.15804 -0.237067,-0.0113 -0.462845,0 -0.688623,0.0564 -0.1016,0.0226 -0.2032,0.0339 -0.3048,0.0564 -0.259645,0.0677 -0.519289,0.18063 -0.745067,0.32738 -0.07902,0.0452 -0.146756,0.1016 -0.214489,0.14676 -0.02258,0.0226 -0.04516,0.0339 -0.07902,0.0564 -0.06773,0.0452 -0.158044,0.0113 -0.158044,-0.0677 -0.01129,-0.11289 -0.01129,-0.22578 -0.02258,-0.33867 -0.01129,-0.0903 -0.07902,-0.16933 -0.158045,-0.19191 -0.04516,-0.0113 -0.09031,-0.0226 -0.135466,-0.0226 -0.259645,-0.0113 -0.51929,-0.0113 -0.778935,-0.0113 -0.06773,0 -0.135466,0.0339 -0.2032,0.0677 -0.04516,0.0226 -0.09031,0.0677 -0.112889,0.12418 -0.03387,0.0903 -0.05644,0.19191 -0.06773,0.29351 0,0.14675 -0.01129,0.29351 -0.01129,0.44026 0,0.68863 0,1.38854 0,2.07716 0,0.1016 0,0.2032 -0.01129,0.3048 -0.01129,0.25965 -0.01129,0.51929 -0.01129,0.77894 0,0.22577 -0.01129,0.44026 -0.04516,0.65475 -0.01129,0.079 -0.01129,0.16934 -0.01129,0.25965 -0.01129,0.18062 0.06773,0.33866 0.2032,0.46284 0.03387,0.0339 0.09031,0.0677 0.146755,0.079 0.03387,0 0.05645,0.0113 0.09031,0.0113 0.237067,0.0113 0.485422,0.0113 0.733778,0 0.05644,0 0.112889,-0.0113 0.169334,-0.0339 0.09031,-0.0226 0.180622,-0.11289 0.2032,-0.2032 0.02258,-0.15805 0.03387,-0.31609 0.02258,-0.47414 0,-0.15804 -0.01129,-0.31609 -0.01129,-0.48542 0,-0.25964 0,-0.51929 0,-0.77893 0,-0.64347 -0.01129,-1.29823 -0.01129,-1.95298 0,-0.0903 0.01129,-0.16934 0.02258,-0.25965 0,-0.0677 0.04516,-0.13547 0.09031,-0.19191 0.248356,-0.21449 0.451556,-0.32738 0.767645,-0.39511 0.237067,-0.0564 0.451556,-0.0113 0.654756,0.13547 0.03387,0.0226 0.06773,0.0452 0.09031,0.0903 0.03387,0.0564 0.07902,0.12417 0.1016,0.19191 0.06773,0.25964 0.124178,0.53058 0.1016,0.8128 -0.01129,0.27093 -0.01129,0.55315 -0.01129,0.82409 -0.01129,0.73378 -0.01129,1.47884 -0.01129,2.21262 0,0.0903 0.01129,0.18063 0.02258,0.25965 0.01129,0.0451 0.02258,0.0903 0.04516,0.12418 0.06773,0.1016 0.158045,0.16933 0.282223,0.19191 0.03387,0 0.07902,0.0113 0.124178,0.0113 0.270933,0 0.553156,0 0.82409,0 0.03387,0 0.05644,0 0.09031,-0.0113 0.03387,-0.0113 0.07902,-0.0339 0.1016,-0.0677 0.04516,-0.0451 0.07902,-0.0903 0.09031,-0.14675 0.03387,-0.11289 0.05645,-0.22578 0.04516,-0.34996 -0.02258,-0.11289 -0.02258,-0.22578 -0.02258,-0.33867 0,-0.45155 0,-0.90311 0,-1.34337 z"
         style="font-family:'Brixton Sans TC';-inkscape-font-specification:'Brixton Sans TC'"
         id="path1711" />
    </g>
    <g
       aria-label="/"
       id="text169"
       style="font-size:9.87778px;font-family:'Brixton Sans TC';-inkscape-font-specification:'Brixton Sans TC';fill:#ffffff;stroke-width:0.264583">
      <path
         d="m 38.197851,124.64857 c 0.05927,0 0.138289,0 0.227189,-0.0198 0.03951,0 0.07902,-0.0296 0.09878,-0.079 0.02963,-0.0988 0.05927,-0.19755 0.09878,-0.29633 0.03951,-0.11854 0.05927,-0.24695 0.108655,-0.36548 0.03951,-0.11853 0.06914,-0.23707 0.108656,-0.36548 0.04939,-0.14816 0.108655,-0.30621 0.148166,-0.45438 0.09878,-0.32596 0.207434,-0.64205 0.316089,-0.95814 0.02963,-0.0889 0.05927,-0.1778 0.0889,-0.2667 0.05927,-0.20743 0.128412,-0.41487 0.217312,-0.61242 0.128411,-0.28646 0.207433,-0.58279 0.306211,-0.87912 0.02963,-0.13829 0.07902,-0.2667 0.118533,-0.40499 0.05927,-0.15805 0.118533,-0.32597 0.158045,-0.49389 0.02963,-0.14817 0.06914,-0.28646 0.108655,-0.43463 0.02963,-0.15804 0.0889,-0.30621 0.118534,-0.46425 0,-0.0395 0.01975,-0.0691 0.02963,-0.0988 0.04939,-0.12841 0.09878,-0.2667 0.148167,-0.39511 0.03951,-0.10866 0.07902,-0.20743 0.128411,-0.31609 0.0099,-0.0296 -0.0099,-0.0691 -0.02963,-0.0988 -0.01975,-0.01 -0.03951,-0.0197 -0.05927,-0.0296 -0.0099,-0.01 -0.02963,-0.01 -0.03951,-0.01 -0.108656,-0.01 -0.227189,-0.01 -0.345723,0.01 -0.07902,0.0198 -0.148166,0.0593 -0.187678,0.13829 -0.04939,0.0889 -0.09878,0.1778 -0.138288,0.27658 -0.07902,0.20743 -0.148167,0.41486 -0.207434,0.6223 -0.06914,0.24694 -0.138289,0.48401 -0.217311,0.73095 -0.05927,0.18768 -0.118533,0.37536 -0.187678,0.55316 -0.05927,0.18768 -0.108655,0.37535 -0.1778,0.56303 -0.07902,0.24695 -0.158044,0.48401 -0.246944,0.72108 -0.04939,0.14817 -0.0889,0.30621 -0.138289,0.46426 -0.03951,0.11853 -0.06914,0.24694 -0.108656,0.36547 -0.03951,0.11854 -0.07902,0.23707 -0.108655,0.36548 -0.02963,0.11853 -0.0889,0.23707 -0.128412,0.3556 -0.02963,0.0889 -0.05927,0.1778 -0.07902,0.2667 -0.03951,0.11853 -0.07902,0.23707 -0.118533,0.3556 -0.05927,0.1778 -0.128411,0.3556 -0.187678,0.52352 -0.05927,0.18768 -0.108656,0.37536 -0.167922,0.56304 -0.0099,0.0198 0,0.0494 0.01976,0.0691 0.02963,0.0494 0.06914,0.079 0.138289,0.0889 0.04939,0.01 0.108656,0.01 0.187678,0.01 z"
         id="path1714" />
    </g>
  </g>
</svg>
