<?xml version="1.0" encoding="UTF-8" standalone="no"?>
<!-- Created with Inkscape (http://www.inkscape.org/) -->

<svg
   width="40"
   height="40"
   viewBox="0 0 10.583333 10.583333"
   version="1.1"
   id="svg5"
   sodipodi:docname="yellowfav.svg"
   inkscape:version="1.2.2 (b0a8486, 2022-12-01)"
   inkscape:export-filename="drawing copy.png"
   inkscape:export-xdpi="960"
   inkscape:export-ydpi="960"
   xmlns:inkscape="http://www.inkscape.org/namespaces/inkscape"
   xmlns:sodipodi="http://sodipodi.sourceforge.net/DTD/sodipodi-0.dtd"
   xmlns="http://www.w3.org/2000/svg"
   xmlns:svg="http://www.w3.org/2000/svg">
  <sodipodi:namedview
     id="namedview9"
     pagecolor="#505050"
     bordercolor="#ffffff"
     borderopacity="1"
     inkscape:showpageshadow="0"
     inkscape:pageopacity="0"
     inkscape:pagecheckerboard="1"
     inkscape:deskcolor="#505050"
     inkscape:document-units="mm"
     showgrid="true"
     inkscape:zoom="13.171902"
     inkscape:cx="27.900299"
     inkscape:cy="14.234846"
     inkscape:window-width="1971"
     inkscape:window-height="1179"
     inkscape:window-x="0"
     inkscape:window-y="25"
     inkscape:window-maximized="0"
     inkscape:current-layer="svg5">
    <inkscape:grid
       type="xygrid"
       id="grid3585"
       originx="0"
       originy="0" />
  </sodipodi:namedview>
  <defs
     id="defs2" />
  <g
     id="layer1"
     transform="translate(-37.346074,-116.20595)">
    <g
       aria-label="Gkm"
       id="text115"
       style="font-size:11.2889px;fill:#ffffff;stroke-width:0.264583">
      <path
         d="m 47.381726,124.09813 c 0,0 0,0 0,0 0,-0.36124 0,-0.72249 0,-1.09502 0,-0.0564 -0.01129,-0.11289 -0.02258,-0.16933 0,-0.0564 -0.03387,-0.11289 -0.09031,-0.13547 -0.135467,-0.0564 -0.270934,-0.1016 -0.417689,-0.1016 -0.259645,0 -0.51929,0 -0.778934,0 -0.09031,0 -0.169334,0.0339 -0.248356,0.079 -0.09031,0.0564 -0.146756,0.14676 -0.158045,0.24836 -0.01129,0.0677 -0.01129,0.14675 -0.01129,0.21449 0,0.4064 0,0.8128 0,1.2192 0,0.0903 -0.01129,0.16933 -0.01129,0.25964 -0.01129,0.11289 -0.06773,0.19192 -0.146755,0.25965 -0.124178,0.1016 -0.270934,0.16933 -0.428979,0.21449 -0.124177,0.0339 -0.248355,0.0564 -0.383822,0.079 -0.169334,0.0226 -0.338667,0.0339 -0.508001,-0.0113 -0.112889,-0.0451 -0.225778,-0.0451 -0.349956,-0.0564 -0.225778,-0.0226 -0.451556,-0.1016 -0.620889,-0.27094 -0.04516,-0.0564 -0.1016,-0.1016 -0.158045,-0.14675 -0.06773,-0.0564 -0.124178,-0.11289 -0.180622,-0.19191 -0.07902,-0.1016 -0.146756,-0.21449 -0.2032,-0.32738 -0.06773,-0.14676 -0.112889,-0.3048 -0.146756,-0.45156 -0.04516,-0.16933 -0.09031,-0.33867 -0.146756,-0.508 -0.03387,-0.1016 -0.05644,-0.21449 -0.05644,-0.33867 -0.01129,-0.42897 -0.01129,-0.86924 0,-1.29822 0,-0.11289 0.01129,-0.23707 0.04516,-0.34996 0.03387,-0.12417 0.04516,-0.24835 0.04516,-0.38382 0.01129,-0.11289 0.01129,-0.22578 0.04516,-0.33866 0.03387,-0.11289 0.04516,-0.22578 0.04516,-0.34996 0.01129,-0.079 0.02258,-0.16933 0.04516,-0.24836 0.03387,-0.0903 0.03387,-0.16933 0.04516,-0.25964 0,-0.079 0.01129,-0.14676 0.03387,-0.21449 0.02258,-0.1016 0.03387,-0.2032 0.05645,-0.3048 0,-0.0564 0.02258,-0.1016 0.03387,-0.15805 0.06773,-0.18062 0.169334,-0.33866 0.282223,-0.49671 0.05644,-0.079 0.135467,-0.14675 0.214489,-0.2032 0.124178,-0.079 0.248356,-0.15804 0.383822,-0.21449 0.180623,-0.0903 0.372534,-0.13546 0.575734,-0.14675 0.282223,0 0.553157,0.0677 0.82409,0.0677 0.05645,0 0.112889,0.0113 0.169334,0.0113 0.03387,0.0113 0.06773,0.0113 0.09031,0.0226 0.124178,0.0339 0.259645,0.0452 0.383822,0.079 0.146756,0.0226 0.282223,0.0677 0.406401,0.13547 0.146756,0.0903 0.3048,0.16933 0.462845,0.24835 0.04515,0.0226 0.1016,0.0452 0.158044,0.0677 0.05644,0.0113 0.158045,-0.0452 0.169334,-0.1016 0.01129,-0.0226 0.01129,-0.0564 0.01129,-0.079 0.01129,-0.11289 -0.03387,-0.2032 -0.124178,-0.25964 -0.124178,-0.079 -0.259645,-0.14676 -0.395112,-0.19191 -0.09031,-0.0339 -0.191911,-0.0677 -0.282222,-0.11289 -0.158045,-0.079 -0.338667,-0.079 -0.496712,-0.13547 -0.1016,-0.0113 -0.2032,-0.0339 -0.3048,-0.0339 -0.169334,0 -0.338667,-0.0113 -0.508001,-0.0564 -0.04516,-0.0226 -0.09031,-0.0226 -0.135466,-0.0226 -0.259645,-0.0113 -0.51929,-0.0226 -0.767646,0.0677 -0.158044,0.0113 -0.316089,0.0677 -0.462845,0.11289 -0.349955,0.0903 -0.688622,0.23706 -1.004712,0.39511 -0.169333,0.0903 -0.327378,0.19191 -0.474133,0.3048 -0.248356,0.19191 -0.462845,0.4064 -0.632179,0.65475 -0.124178,0.19191 -0.248356,0.38383 -0.395111,0.57574 -0.06773,0.1016 -0.135467,0.22578 -0.169334,0.34995 -0.06773,0.2032 -0.135467,0.4064 -0.191911,0.62089 -0.07902,0.29351 -0.07902,0.29351 -0.1016,0.59831 -0.01129,0.079 -0.02258,0.16934 -0.02258,0.25965 -0.02258,0.25964 0.01129,0.51929 0.03387,0.77893 0.01129,0.0226 0.01129,0.0565 0.02258,0.079 0.07902,0.29351 0.180623,0.58702 0.304801,0.85795 0.07902,0.2032 0.191911,0.39511 0.327378,0.56445 0.124178,0.15804 0.248356,0.31609 0.383822,0.47413 0.03387,0.0452 0.07902,0.079 0.112889,0.12418 0.361245,0.33867 0.756357,0.62089 1.196624,0.86924 0.146756,0.079 0.3048,0.14676 0.474134,0.2032 0.112889,0.0564 0.248355,0.079 0.372533,0.0903 0.124178,0.0113 0.237067,0.0226 0.349956,0.0339 0.05645,0 0.112889,0.0113 0.169334,0.0113 0.248356,-0.0226 0.496711,-0.0339 0.733778,-0.0903 0.191912,-0.0339 0.372534,-0.0677 0.553156,-0.12418 0.101601,-0.0226 0.203201,-0.0226 0.293512,0.0452 0.06773,0.0451 0.158044,0.079 0.237067,0.079 0.395111,0 0.790223,0 1.174045,-0.0113 0.03387,0 0.05645,0 0.09031,-0.0113 0.05644,-0.0113 0.135466,-0.0903 0.146755,-0.14675 0.01129,-0.0564 0.02258,-0.11289 0.02258,-0.16934 0,-0.34995 0,-0.69991 0.01129,-1.03858 z"
         style="font-family:'Brixton Sans TC';-inkscape-font-specification:'Brixton Sans TC'"
         id="path1707" />
    </g>
    <g
       aria-label="/"
       id="text169"
       style="font-size:9.87778px;font-family:'Brixton Sans TC';-inkscape-font-specification:'Brixton Sans TC';fill:#ffffff;stroke-width:0.264583">
      <path
         d="m 38.197851,124.64857 c 0.05927,0 0.138289,0 0.227189,-0.0198 0.03951,0 0.07902,-0.0296 0.09878,-0.079 0.02963,-0.0988 0.05927,-0.19755 0.09878,-0.29633 0.03951,-0.11854 0.05927,-0.24695 0.108655,-0.36548 0.03951,-0.11853 0.06914,-0.23707 0.108656,-0.36548 0.04939,-0.14816 0.108655,-0.30621 0.148166,-0.45438 0.09878,-0.32596 0.207434,-0.64205 0.316089,-0.95814 0.02963,-0.0889 0.05927,-0.1778 0.0889,-0.2667 0.05927,-0.20743 0.128412,-0.41487 0.217312,-0.61242 0.128411,-0.28646 0.207433,-0.58279 0.306211,-0.87912 0.02963,-0.13829 0.07902,-0.2667 0.118533,-0.40499 0.05927,-0.15805 0.118533,-0.32597 0.158045,-0.49389 0.02963,-0.14817 0.06914,-0.28646 0.108655,-0.43463 0.02963,-0.15804 0.0889,-0.30621 0.118534,-0.46425 0,-0.0395 0.01975,-0.0691 0.02963,-0.0988 0.04939,-0.12841 0.09878,-0.2667 0.148167,-0.39511 0.03951,-0.10866 0.07902,-0.20743 0.128411,-0.31609 0.0099,-0.0296 -0.0099,-0.0691 -0.02963,-0.0988 -0.01975,-0.01 -0.03951,-0.0197 -0.05927,-0.0296 -0.0099,-0.01 -0.02963,-0.01 -0.03951,-0.01 -0.108656,-0.01 -0.227189,-0.01 -0.345723,0.01 -0.07902,0.0198 -0.148166,0.0593 -0.187678,0.13829 -0.04939,0.0889 -0.09878,0.1778 -0.138288,0.27658 -0.07902,0.20743 -0.148167,0.41486 -0.207434,0.6223 -0.06914,0.24694 -0.138289,0.48401 -0.217311,0.73095 -0.05927,0.18768 -0.118533,0.37536 -0.187678,0.55316 -0.05927,0.18768 -0.108655,0.37535 -0.1778,0.56303 -0.07902,0.24695 -0.158044,0.48401 -0.246944,0.72108 -0.04939,0.14817 -0.0889,0.30621 -0.138289,0.46426 -0.03951,0.11853 -0.06914,0.24694 -0.108656,0.36547 -0.03951,0.11854 -0.07902,0.23707 -0.108655,0.36548 -0.02963,0.11853 -0.0889,0.23707 -0.128412,0.3556 -0.02963,0.0889 -0.05927,0.1778 -0.07902,0.2667 -0.03951,0.11853 -0.07902,0.23707 -0.118533,0.3556 -0.05927,0.1778 -0.128411,0.3556 -0.187678,0.52352 -0.05927,0.18768 -0.108656,0.37536 -0.167922,0.56304 -0.0099,0.0198 0,0.0494 0.01976,0.0691 0.02963,0.0494 0.06914,0.079 0.138289,0.0889 0.04939,0.01 0.108656,0.01 0.187678,0.01 z"
         id="path1714" />
    </g>
  </g>
  <path
     style="fill:#ffae35;stroke:none;stroke-width:0.0759192;fill-opacity:1"
     d="m 24.483936,35.260642 c -1.394295,-0.158274 -1.733791,-0.234609 -2.675404,-0.601552 -1.847815,-0.720087 -4.52106,-2.522287 -5.991446,-4.039203 -0.577292,-0.595561 -2.019024,-2.426838 -2.376841,-3.019045 -0.54714,-0.905547 -1.368429,-2.995367 -1.747057,-4.445492 -0.231027,-0.88482 -0.287973,-2.967105 -0.12146,-4.441272 0.205679,-1.820904 1.06162,-4.624946 1.703329,-5.58006 1.872981,-2.787732 1.956289,-2.899631 2.74129,-3.6820801 1.261231,-1.2571304 2.526339,-2.0753356 4.518172,-2.9221159 0.876841,-0.3727684 3.025564,-1.0478109 3.750292,-1.1781913 0.234785,-0.042238 0.648946,-0.126982 0.920357,-0.188319 0.665021,-0.1502904 2.142699,-0.1487244 2.710406,0.00287 0.242132,0.064657 0.918531,0.1477955 1.503108,0.1847517 1.194823,0.075535 2.860902,0.4088483 3.530242,0.7062547 0.229656,0.1020423 0.705689,0.2974155 1.057853,0.4341627 0.711432,0.2762526 1.414485,0.6645833 1.625664,0.8979337 0.15681,0.173273 0.244521,0.665848 0.17084,0.9594162 -0.03024,0.120493 -0.145863,0.242596 -0.298756,0.3155054 C 35.264732,8.7785558 35.235094,8.7740741 34.73672,8.5481002 34.451608,8.4188244 33.821686,8.0949389 33.336892,7.8283547 32.852098,7.5617704 32.335877,7.3058154 32.189732,7.2595659 31.532179,7.0514732 29.646747,6.697474 28.887248,6.6395079 28.427937,6.6044526 27.556764,6.5240132 26.951309,6.4607536 25.06136,6.2632867 23.966606,6.5438703 22.24432,7.6671465 c -0.563323,0.3673993 -0.767842,0.5748184 -1.198405,1.2153976 -0.575438,0.8561194 -0.827187,1.4591269 -0.998404,2.3914539 -0.08818,0.480189 -0.192863,1.009725 -0.232619,1.176748 -0.03976,0.167022 -0.0735,0.440331 -0.075,0.607353 -0.0015,0.167022 -0.05299,0.491577 -0.114448,0.721232 -0.06145,0.229656 -0.148124,0.776274 -0.192597,1.214707 -0.04447,0.438433 -0.128982,0.985051 -0.187796,1.214707 -0.05882,0.229655 -0.129222,0.793355 -0.15646,1.252666 -0.02724,0.459311 -0.118792,1.142584 -0.203452,1.518384 -0.140801,0.625002 -0.153829,0.942251 -0.152759,3.72004 9.48e-4,2.462254 0.0225,3.108581 0.11392,3.416363 0.06201,0.208778 0.256258,0.89205 0.431656,1.518384 0.465463,1.662134 0.744327,2.447555 1.051254,2.960848 0.2931,0.490169 0.921437,1.328329 0.996294,1.328988 0.02516,2.28e-4 0.301967,0.239033 0.615134,0.530691 0.896757,0.835166 1.581422,1.127218 2.927873,1.248918 0.29503,0.02667 0.701882,0.09828 0.904116,0.159146 0.993602,0.29903 3.287886,-0.04344 4.46234,-0.666093 0.533537,-0.282863 1.004513,-0.777845 1.113463,-1.170217 0.05142,-0.185176 0.08141,-1.399508 0.08168,-3.306696 4.55e-4,-3.375148 0.0293,-3.652694 0.41995,-4.043344 0.458051,-0.45805 0.780161,-0.512102 2.863479,-0.480504 1.779093,0.02698 1.859521,0.03481 2.371838,0.230747 0.291665,0.11155 0.571534,0.259209 0.621931,0.328131 0.166993,0.228376 0.18704,0.868815 0.162614,5.19492 -0.02219,3.929984 -0.03546,4.310002 -0.158362,4.534885 -0.255468,0.467449 -0.312327,0.476099 -3.107631,0.472768 l -2.528082,-0.003 -0.417556,-0.224727 c -0.445775,-0.239915 -1.008352,-0.29946 -1.404889,-0.148698 -0.269394,0.102424 -2.289505,0.505794 -2.998423,0.598718 -0.915147,0.119955 -2.11649,0.154894 -2.77105,0.08059 z"
     id="path4672"
     transform="scale(0.26458333)" />
  <path
     style="fill:#ffae35;fill-opacity:1;stroke:none;stroke-width:0.0759192"
     d="m 23.838623,35.150362 c -0.396678,-0.05986 -1.048112,-0.211683 -1.44763,-0.337381 -1.686382,-0.530572 -4.247117,-2.115141 -5.98416,-3.702966 -1.105582,-1.010609 -2.682289,-3.01889 -3.230913,-4.115277 -0.42737,-0.85407 -1.118333,-2.660969 -1.381549,-3.612816 -0.20432,-0.738863 -0.209647,-0.808816 -0.210921,-2.769865 -0.0012,-1.89741 0.01026,-2.065906 0.202058,-2.961958 0.547423,-2.557509 0.997407,-3.679395 2.197163,-5.477899 1.142544,-1.71274 1.660916,-2.353214 2.520098,-3.1137051 1.500906,-1.3285012 3.19588,-2.2533846 5.513793,-3.0086684 2.217937,-0.7227067 3.227022,-0.9259568 4.584571,-0.9234259 0.547519,0.00102 1.132143,0.033334 1.299166,0.071807 0.167022,0.038473 0.839736,0.1234056 1.494921,0.1887393 1.95039,0.194489 2.768074,0.390914 4.350856,1.0451671 1.679274,0.6941394 2.011858,0.9560988 2.011858,1.5846409 0,0.396026 -0.196302,0.6759916 -0.47398,0.6759916 -0.07792,0 -0.660802,-0.2618935 -1.295291,-0.5819856 C 33.354173,7.7906683 32.680075,7.4524761 32.490667,7.3592222 31.826561,7.0322541 29.998956,6.7047712 27.634582,6.4890752 26.235525,6.3614427 25.806246,6.3477981 25.262442,6.4136772 24.190028,6.5435948 23.35269,6.8911434 22.112132,7.721257 c -0.628527,0.4205754 -1.136341,1.0689868 -1.624254,2.0739597 -0.310941,0.6404543 -0.581202,1.7333353 -0.785791,3.1775683 -0.210788,1.487998 -0.346088,2.369027 -0.456141,2.970243 -0.06115,0.334044 -0.146606,0.990874 -0.189909,1.459623 -0.0433,0.468748 -0.137696,1.134939 -0.209763,1.480424 -0.112303,0.538381 -0.13069,1.083854 -0.128654,3.81676 l 0.0024,3.188605 0.399127,1.366546 c 0.771417,2.641204 0.975811,3.143514 1.656026,4.069785 0.352962,0.480639 1.348383,1.403624 1.926101,1.78594 0.419422,0.27756 1.067265,0.477395 1.948855,0.601149 0.440122,0.06178 0.952765,0.150741 1.139205,0.197688 0.213872,0.05385 0.708021,0.06984 1.338865,0.04333 1.652377,-0.06946 3.067986,-0.520363 3.768758,-1.200438 0.501419,-0.486611 0.532816,-0.621942 0.5395,-2.325386 0.0032,-0.826014 0.02998,-2.338851 0.05942,-3.361862 0.05829,-2.025475 0.08694,-2.156858 0.544028,-2.494799 0.396324,-0.293014 0.709493,-0.32757 2.731102,-0.301356 l 1.93594,0.0251 0.501104,0.237437 c 0.433562,0.205433 0.507751,0.270669 0.550414,0.483985 0.07291,0.364558 0.05343,8.788828 -0.02122,9.175222 -0.03515,0.181956 -0.137065,0.404019 -0.226472,0.493475 -0.159016,0.1591 -0.219985,0.163123 -2.796406,0.18452 l -2.633846,0.02187 -0.443353,-0.198965 c -0.545655,-0.244876 -1.00737,-0.255811 -1.838871,-0.04355 -2.040382,0.520855 -4.47606,0.726112 -5.959655,0.502227 z"
     id="path4743"
     transform="scale(0.26458333)" />
  <path
     style="fill:#ffae35;fill-opacity:1;stroke:none;stroke-width:0.0759192"
     d="M 23.838623,35.144301 C 22.174479,34.904696 20.58577,34.196812 18.52428,32.77638 c -1.635435,-1.126867 -2.637834,-2.052018 -3.772527,-3.4818 -1.288786,-1.623951 -1.703219,-2.357835 -2.416518,-4.27921 -0.662918,-1.785666 -0.728222,-2.115851 -0.774138,-3.914154 -0.02633,-1.031203 -0.0081,-1.880028 0.0513,-2.391454 0.168672,-1.451648 0.872404,-3.93897 1.427175,-5.04431 0.262521,-0.523054 1.891126,-2.924531 2.405085,-3.546445 0.769161,-0.9307193 2.181839,-2.0588928 3.485028,-2.7831646 1.375863,-0.764662 3.835492,-1.6277357 5.773464,-2.0258845 0.964497,-0.1981522 2.577317,-0.2545255 3.197145,-0.1117507 0.167022,0.038473 0.850294,0.1243029 1.518383,0.1907333 1.97031,0.1959148 2.865426,0.4156185 4.479232,1.0994155 1.538068,0.6517053 1.86002,0.9167689 1.86002,1.5313559 0,0.4056641 -0.180953,0.6730342 -0.4555,0.6730342 -0.0835,0 -0.843644,-0.3429029 -1.689202,-0.7620065 C 32.241397,7.2507877 31.981834,7.1491016 31.202778,6.9864237 30.090704,6.7542069 28.935336,6.5990326 27.22931,6.4527578 25.317541,6.2888426 24.508156,6.4062078 23.293446,7.0234785 22.177358,7.590634 21.540053,8.1040512 21.032908,8.8445845 20.316024,9.8913798 20.038627,10.756659 19.70617,12.983049 c -0.06228,0.417077 -0.199793,1.322023 -0.305584,2.010989 -0.105792,0.688967 -0.228103,1.543057 -0.271803,1.89798 -0.0437,0.354922 -0.154887,1.123603 -0.247082,1.708181 -0.153487,0.973208 -0.167307,1.325447 -0.163825,4.175555 l 0.0038,3.112686 0.511895,1.746142 c 0.281542,0.960377 0.623352,2.004219 0.759579,2.319648 0.368176,0.852504 0.915611,1.61362 1.627957,2.2634 1.151107,1.050003 1.6224,1.282011 3.02828,1.490765 0.440447,0.0654 0.976283,0.1566 1.190748,0.202667 1.009887,0.216922 3.15966,-0.09449 4.252375,-0.615997 0.569075,-0.271595 1.213903,-0.921261 1.289482,-1.29916 0.0267,-0.13349 0.05122,-0.964415 0.0545,-1.846501 0.0033,-0.882086 0.031,-2.355392 0.06161,-3.274014 0.06295,-1.889334 0.09764,-2.019695 0.63133,-2.372799 l 0.315063,-0.208453 h 2.131213 2.131214 l 0.501104,0.237437 c 0.433562,0.205433 0.507751,0.270669 0.550414,0.483985 0.076,0.379997 0.05477,8.881136 -0.02301,9.216471 -0.03778,0.162886 -0.140369,0.367868 -0.227968,0.455515 -0.154757,0.154843 -0.233896,0.159977 -2.793116,0.181231 l -2.633846,0.02187 -0.443363,-0.19897 c -0.565113,-0.253607 -0.920178,-0.235724 -2.711931,0.136595 -2.133846,0.443403 -3.578512,0.53316 -5.086585,0.316026 z"
     id="path4745"
     transform="scale(0.26458333)" />
  <path
     style="fill:#ffae35;fill-opacity:1;stroke:none;stroke-width:0.0759192"
     d="M 2.2595603,31.729258 C 2.1452632,31.667241 2.0315016,31.535835 2.0067569,31.437244 1.9507156,31.213958 2.3714242,29.830516 3.5325531,26.419875 4.0158762,25.000186 4.447077,23.71905 4.4907773,23.572905 5.4551561,20.34778 5.8767419,18.995211 6.4785081,17.195694 7.6992759,13.54512 8.3205403,11.612196 8.8375487,9.8560726 9.7094163,6.8945991 10.221556,5.7185041 10.748085,5.4686495 c 0.295659,-0.1402997 1.280492,-0.1981069 1.64353,-0.096471 0.310434,0.086909 0.390967,0.2977645 0.245461,0.6426829 -0.395517,0.937563 -1.034832,2.7479934 -1.200326,3.399117 -0.106129,0.4175555 -0.349729,1.3741366 -0.541332,2.1257366 -0.191603,0.7516 -0.515025,1.879 -0.718714,2.505333 -0.2036895,0.626334 -0.5647459,1.753733 -0.8023476,2.505333 -0.2376018,0.7516 -0.5851811,1.742345 -0.7723984,2.201656 -0.4800271,1.177679 -2.2417033,6.48503 -3.4019938,10.24909 -0.7164183,2.324108 -0.8398882,2.653746 -1.0304046,2.750951 -0.268825,0.137159 -1.6454705,0.120712 -1.9099993,-0.02282 z"
     id="path4747"
     transform="scale(0.26458333)" />
</svg>
